<svg width="222" height="213" viewBox="0 0 222 213" fill="none" xmlns="http://www.w3.org/2000/svg">
<path d="M29.9575 159.692V82.0159C29.9575 52.9483 53.5215 29.3843 82.5892 29.3843H138.463C167.531 29.3843 191.095 52.9482 191.095 82.0159V159.691C191.095 188.759 167.531 212.323 138.463 212.323H82.5892C53.5215 212.323 29.9575 188.759 29.9575 159.692Z" fill="#F7E171"/>
<path d="M48.7466 53.0537V163.185" stroke="white" stroke-width="13.1579" stroke-linecap="round"/>
<g filter="url(#filter0_d_588_13968)">
<path d="M11 63.0285L34.431 27.4882L31.8531 25.5925V0H186.829V25.5925L184.222 27.4882L211 63.0285C206.119 69.8206 193.929 83.4049 184.222 83.4049C174.515 83.4049 165.393 69.8206 162.046 63.0285C158.699 59.0795 150.163 53.5511 142.799 63.0285C135.435 72.5059 122.715 83.4049 115.603 83.4049C108.49 83.4049 97.4435 72.885 88.4059 63.0285C79.3682 53.172 70.9721 58.9216 67.9038 63.0285C65.1144 69.6626 56.1046 83.0258 42.3808 83.4049C28.6569 83.784 15.742 69.9786 11 63.0285Z" fill="#86C6B5"/>
</g>
<path d="M186.356 25.5923H32.8013V27.962H186.356V25.5923Z" fill="#454545" stroke="#454545" stroke-width="2.63158"/>
<path d="M109.104 27.4883C95.6762 36.3351 70.9053 59.7158 79.2465 82.4647C87.5878 105.214 102.627 55.2925 109.104 27.4883ZM109.104 27.4883C105.313 45.0239 101.806 81.6116 118.109 87.678C134.412 93.7444 118.899 50.0792 109.104 27.4883ZM109.104 27.4883C116.213 51.8169 121.332 82.4647 111.474 107.109" stroke="#454545" stroke-width="7.89475" stroke-linecap="round" stroke-linejoin="round"/>
<rect x="64.0806" y="109.953" width="99.5261" height="52.1328" rx="26.0664" fill="white"/>
<path d="M87.4789 125.127C89.1631 125.127 90.6473 125.474 91.9315 126.169C93.2157 126.842 94.2263 127.811 94.9631 129.074C95.6999 130.316 96.0684 131.779 96.0684 133.463C96.0684 135.148 95.6894 136.663 94.9315 138.011C94.1947 139.337 93.1526 140.39 91.8052 141.169C90.4789 141.948 88.921 142.337 87.1315 142.337C85.4894 142.337 84.0157 141.99 82.7105 141.295C81.4262 140.6 80.4052 139.632 79.6473 138.39C78.9104 137.127 78.542 135.653 78.542 133.969C78.542 132.306 78.9104 130.811 79.6473 129.484C80.3841 128.137 81.4262 127.074 82.7736 126.295C84.121 125.516 85.6894 125.127 87.4789 125.127ZM87.1947 125.695C86.0578 125.695 85.121 126.421 84.3841 127.874C83.6683 129.306 83.3105 131.306 83.3105 133.874C83.3105 135.769 83.4999 137.295 83.8789 138.453C84.2578 139.611 84.7526 140.453 85.3631 140.979C85.9947 141.506 86.6789 141.769 87.4157 141.769C88.5526 141.769 89.4789 141.042 90.1947 139.59C90.9315 138.137 91.2999 136.127 91.2999 133.558C91.2999 131.663 91.1105 130.137 90.7315 128.979C90.3526 127.821 89.8473 126.99 89.2157 126.484C88.6052 125.958 87.9315 125.695 87.1947 125.695ZM101.738 137.474C102.559 137.474 103.211 137.695 103.696 138.137C104.18 138.558 104.422 139.148 104.422 139.906C104.422 140.663 104.18 141.263 103.696 141.706C103.211 142.127 102.559 142.337 101.738 142.337C100.917 142.337 100.264 142.127 99.7799 141.706C99.2957 141.263 99.0536 140.663 99.0536 139.906C99.0536 139.148 99.2957 138.558 99.7799 138.137C100.264 137.695 100.917 137.474 101.738 137.474ZM117.712 124.369C117.712 125.758 117.723 126.842 117.744 127.621C117.765 128.379 117.797 129.063 117.839 129.674C117.67 129.632 117.344 129.6 116.86 129.579C116.397 129.558 115.86 129.548 115.249 129.548C114.639 129.527 114.039 129.516 113.449 129.516H108.586L108.081 134.916C108.586 134.558 109.228 134.263 110.007 134.032C110.807 133.779 111.754 133.653 112.849 133.653C114.26 133.653 115.418 133.874 116.323 134.316C117.228 134.758 117.902 135.358 118.344 136.116C118.786 136.874 119.007 137.716 119.007 138.642C119.007 139.863 118.639 140.958 117.902 141.927C117.186 142.895 116.218 143.727 114.997 144.421C113.775 145.116 112.428 145.642 110.954 146C109.481 146.379 107.997 146.569 106.502 146.569V146C107.47 146 108.418 145.842 109.344 145.527C110.291 145.211 111.133 144.748 111.87 144.137C112.607 143.527 113.197 142.779 113.639 141.895C114.081 141.011 114.302 139.99 114.302 138.832C114.302 137.527 113.997 136.516 113.386 135.8C112.775 135.084 111.87 134.727 110.67 134.727C110.06 134.727 109.533 134.811 109.091 134.979C108.67 135.127 108.249 135.348 107.828 135.642L107.386 135.358L108.397 125.474C108.628 125.516 108.891 125.548 109.186 125.569C109.502 125.59 109.807 125.6 110.102 125.6H115.312C115.923 125.6 116.344 125.506 116.575 125.316C116.828 125.127 116.986 124.811 117.049 124.369H117.712ZM130.97 125.411V139.937C130.97 140.527 131.061 140.927 131.243 141.137C131.44 141.348 131.77 141.453 132.233 141.453V141.895C131.966 141.881 131.573 141.867 131.054 141.853C130.549 141.825 130.029 141.811 129.496 141.811C128.949 141.811 128.394 141.825 127.833 141.853C127.285 141.867 126.871 141.881 126.591 141.895V141.453C127.082 141.453 127.426 141.348 127.622 141.137C127.833 140.927 127.938 140.527 127.938 139.937V127.937C127.938 127.306 127.84 126.842 127.643 126.548C127.461 126.239 127.11 126.084 126.591 126.084V125.642C127.04 125.684 127.475 125.706 127.896 125.706C128.471 125.706 129.019 125.684 129.538 125.642C130.057 125.586 130.535 125.509 130.97 125.411ZM137.833 131.011V131.432C137.398 131.516 136.963 131.699 136.528 131.979C136.092 132.26 135.65 132.618 135.201 133.053L133.58 134.737L133.791 134.337L137.391 140.358C137.545 140.611 137.707 140.835 137.875 141.032C138.043 141.228 138.247 141.369 138.485 141.453V141.895C138.275 141.881 137.959 141.867 137.538 141.853C137.117 141.825 136.696 141.811 136.275 141.811C135.756 141.811 135.236 141.825 134.717 141.853C134.198 141.867 133.812 141.881 133.559 141.895V141.453C133.84 141.453 134.029 141.39 134.128 141.263C134.226 141.123 134.212 140.948 134.085 140.737L132.001 136.969C131.833 136.702 131.664 136.534 131.496 136.463C131.342 136.379 131.131 136.33 130.864 136.316V135.916C131.159 135.888 131.412 135.839 131.622 135.769C131.847 135.699 132.05 135.565 132.233 135.369L133.833 133.811C134.31 133.362 134.549 132.962 134.549 132.611C134.549 132.26 134.394 131.979 134.085 131.769C133.791 131.558 133.398 131.446 132.907 131.432V131.011C133.3 131.025 133.728 131.039 134.191 131.053C134.654 131.067 135.047 131.074 135.37 131.074C135.65 131.074 135.945 131.074 136.254 131.074C136.577 131.06 136.878 131.053 137.159 131.053C137.44 131.039 137.664 131.025 137.833 131.011ZM143.095 145.853C142.225 145.853 141.446 145.776 140.758 145.621C140.085 145.481 139.551 145.256 139.158 144.948C138.779 144.653 138.59 144.288 138.59 143.853C138.59 143.418 138.786 143.025 139.179 142.674C139.572 142.337 140.155 142.07 140.927 141.874L141.116 142.211C140.85 142.421 140.653 142.646 140.527 142.884C140.414 143.137 140.358 143.397 140.358 143.663C140.358 144.253 140.625 144.702 141.158 145.011C141.706 145.334 142.443 145.495 143.369 145.495C144 145.495 144.562 145.411 145.053 145.242C145.558 145.074 145.951 144.821 146.232 144.484C146.527 144.148 146.674 143.734 146.674 143.242C146.674 142.821 146.52 142.463 146.211 142.169C145.902 141.888 145.285 141.748 144.358 141.748H143.053C142.478 141.748 141.972 141.684 141.537 141.558C141.116 141.432 140.786 141.235 140.548 140.969C140.309 140.688 140.19 140.337 140.19 139.916C140.19 139.327 140.421 138.807 140.885 138.358C141.348 137.909 142.036 137.488 142.948 137.095L143.158 137.263C142.892 137.432 142.639 137.614 142.4 137.811C142.176 137.993 142.064 138.232 142.064 138.527C142.064 138.976 142.344 139.2 142.906 139.2H145.2C145.972 139.2 146.66 139.292 147.264 139.474C147.881 139.656 148.365 139.958 148.716 140.379C149.081 140.786 149.264 141.32 149.264 141.979C149.264 142.667 149.039 143.306 148.59 143.895C148.155 144.484 147.481 144.955 146.569 145.306C145.657 145.67 144.499 145.853 143.095 145.853ZM143.306 137.411C142.506 137.411 141.79 137.292 141.158 137.053C140.527 136.814 140.029 136.449 139.664 135.958C139.299 135.467 139.116 134.835 139.116 134.063C139.116 133.292 139.299 132.66 139.664 132.169C140.029 131.663 140.527 131.299 141.158 131.074C141.79 130.835 142.506 130.716 143.306 130.716C144.106 130.716 144.822 130.835 145.453 131.074C146.085 131.299 146.583 131.663 146.948 132.169C147.313 132.66 147.495 133.292 147.495 134.063C147.495 134.835 147.313 135.467 146.948 135.958C146.583 136.449 146.085 136.814 145.453 137.053C144.822 137.292 144.106 137.411 143.306 137.411ZM143.306 137.032C143.685 137.032 143.979 136.821 144.19 136.4C144.4 135.965 144.506 135.186 144.506 134.063C144.506 132.941 144.4 132.169 144.19 131.748C143.979 131.313 143.685 131.095 143.306 131.095C142.941 131.095 142.646 131.313 142.422 131.748C142.211 132.169 142.106 132.941 142.106 134.063C142.106 135.186 142.211 135.965 142.422 136.4C142.646 136.821 142.941 137.032 143.306 137.032ZM146.59 132.527L146.169 132.379C146.379 131.832 146.716 131.376 147.179 131.011C147.657 130.646 148.169 130.463 148.716 130.463C149.165 130.463 149.502 130.59 149.727 130.842C149.965 131.081 150.085 131.397 150.085 131.79C150.085 132.211 149.972 132.527 149.748 132.737C149.523 132.934 149.271 133.032 148.99 133.032C148.751 133.032 148.527 132.948 148.316 132.779C148.12 132.611 148.007 132.358 147.979 132.021C147.951 131.67 148.071 131.221 148.337 130.674L148.485 130.8C147.951 130.997 147.551 131.228 147.285 131.495C147.018 131.748 146.786 132.091 146.59 132.527Z" fill="#454545"/>
<defs>
<filter id="filter0_d_588_13968" x="0.473672" y="0" width="221.053" height="104.465" filterUnits="userSpaceOnUse" color-interpolation-filters="sRGB">
<feFlood flood-opacity="0" result="BackgroundImageFix"/>
<feColorMatrix in="SourceAlpha" type="matrix" values="0 0 0 0 0 0 0 0 0 0 0 0 0 0 0 0 0 0 127 0" result="hardAlpha"/>
<feOffset dy="10.5263"/>
<feGaussianBlur stdDeviation="5.26316"/>
<feComposite in2="hardAlpha" operator="out"/>
<feColorMatrix type="matrix" values="0 0 0 0 0 0 0 0 0 0 0 0 0 0 0 0 0 0 0.25 0"/>
<feBlend mode="normal" in2="BackgroundImageFix" result="effect1_dropShadow_588_13968"/>
<feBlend mode="normal" in="SourceGraphic" in2="effect1_dropShadow_588_13968" result="shape"/>
</filter>
</defs>
</svg>
