<svg width="212" height="213" viewBox="0 0 212 213" fill="none" xmlns="http://www.w3.org/2000/svg">
<path d="M24.9575 183.546V58.1613C24.9575 42.2682 37.8415 29.3843 53.7346 29.3843H157.318C173.211 29.3843 186.095 42.2682 186.095 58.1613V183.546C186.095 199.439 173.211 212.323 157.318 212.323H53.7345C37.8414 212.323 24.9575 199.439 24.9575 183.546Z" fill="#F7E171"/>
<path d="M42.019 53.0801V189.573" stroke="white" stroke-width="7.19425" stroke-linecap="round"/>
<g filter="url(#filter0_d_588_14000)">
<path d="M6 63.0284L29.431 27.4882L26.8531 25.5925V0H181.829V25.5925L179.222 27.4882L206 63.0284C201.119 69.8205 188.929 83.4048 179.222 83.4048C169.515 83.4048 160.393 69.8205 157.046 63.0284C153.699 59.0795 145.163 53.551 137.799 63.0284C130.435 72.5058 117.715 83.4048 110.603 83.4048C103.49 83.4048 92.4435 72.8849 83.4059 63.0284C74.3682 53.1719 65.9721 58.9215 62.9038 63.0284C60.1144 69.6626 51.1046 83.0257 37.3808 83.4048C23.6569 83.7839 10.742 69.9785 6 63.0284Z" fill="#F7E171"/>
<path d="M6 63.0284L29.431 27.4882L26.8531 25.5925V0H181.829V25.5925L179.222 27.4882L206 63.0284C201.119 69.8205 188.929 83.4048 179.222 83.4048C169.515 83.4048 160.393 69.8205 157.046 63.0284C153.699 59.0795 145.163 53.551 137.799 63.0284C130.435 72.5058 117.715 83.4048 110.603 83.4048C103.49 83.4048 92.4435 72.8849 83.4059 63.0284C74.3682 53.1719 65.9721 58.9215 62.9038 63.0284C60.1144 69.6626 51.1046 83.0257 37.3808 83.4048C23.6569 83.7839 10.742 69.9785 6 63.0284Z" fill="black" fill-opacity="0.05"/>
</g>
<path d="M181.356 25.5923H27.801V27.962H181.356V25.5923Z" fill="#454545" stroke="#454545" stroke-width="1.43885"/>
<path d="M104.104 27.4878C90.6762 36.3346 65.9053 59.7153 74.2465 82.4642C82.5878 105.213 97.6272 55.2919 104.104 27.4878ZM104.104 27.4878C100.313 45.0234 96.8056 81.6111 113.109 87.6775C129.412 93.7438 113.899 50.0787 104.104 27.4878ZM104.104 27.4878C111.213 51.8164 116.332 82.4642 106.474 107.109" stroke="#454545" stroke-width="4.31655" stroke-linecap="round" stroke-linejoin="round"/>
<rect x="59.0806" y="109.952" width="99.5261" height="52.1328" rx="14.3885" fill="white"/>
<path d="M87.0109 120.935V142.64C87.0109 144.118 87.2795 145.125 87.8167 145.662C88.3874 146.199 89.3275 146.468 90.6368 146.468V147.525C89.9654 147.492 88.9749 147.458 87.6656 147.425C86.3898 147.358 85.0637 147.324 83.6872 147.324C81.9749 147.324 80.3131 147.358 78.7016 147.425C77.1236 147.458 75.8982 147.492 75.0253 147.525V146.468C76.5361 146.468 77.6944 146.199 78.5001 145.662C79.3394 145.091 79.7591 143.983 79.7591 142.338V130.051C79.7591 128.439 79.6248 127.247 79.3562 126.475C79.0876 125.703 78.5841 125.199 77.8454 124.964C77.1068 124.729 76.0996 124.612 74.8239 124.612V123.504C77.7111 123.437 80.0948 123.218 81.9749 122.849C83.8886 122.48 85.5673 121.842 87.0109 120.935ZM108.606 120.784C111.292 120.784 113.659 121.338 115.707 122.446C117.754 123.521 119.366 125.065 120.541 127.079C121.716 129.06 122.304 131.393 122.304 134.079C122.304 136.765 121.699 139.182 120.491 141.331C119.316 143.446 117.654 145.125 115.505 146.367C113.39 147.609 110.906 148.23 108.052 148.23C105.433 148.23 103.083 147.676 101.001 146.569C98.9535 145.461 97.3252 143.916 96.1166 141.935C94.9415 139.921 94.354 137.571 94.354 134.885C94.354 132.233 94.9415 129.849 96.1166 127.734C97.2916 125.585 98.9535 123.89 101.102 122.648C103.251 121.405 105.752 120.784 108.606 120.784ZM108.153 121.691C106.34 121.691 104.846 122.849 103.671 125.166C102.529 127.449 101.958 130.638 101.958 134.734C101.958 137.756 102.26 140.19 102.865 142.036C103.469 143.883 104.258 145.226 105.232 146.065C106.239 146.904 107.33 147.324 108.505 147.324C110.318 147.324 111.795 146.166 112.937 143.849C114.112 141.533 114.699 138.326 114.699 134.23C114.699 131.209 114.397 128.775 113.793 126.928C113.189 125.082 112.383 123.756 111.376 122.95C110.402 122.111 109.328 121.691 108.153 121.691ZM131.842 136.259V146.187C131.842 146.59 131.905 146.864 132.029 147.007C132.164 147.151 132.389 147.223 132.706 147.223V147.525C132.523 147.516 132.255 147.506 131.9 147.497C131.555 147.477 131.2 147.468 130.835 147.468C130.461 147.468 130.082 147.477 129.698 147.497C129.324 147.506 129.041 147.516 128.85 147.525V147.223C129.185 147.223 129.42 147.151 129.555 147.007C129.698 146.864 129.77 146.59 129.77 146.187V137.986C129.77 137.554 129.703 137.238 129.569 137.036C129.444 136.825 129.204 136.72 128.85 136.72V136.417C129.156 136.446 129.454 136.461 129.742 136.461C130.135 136.461 130.509 136.446 130.864 136.417C131.219 136.379 131.545 136.326 131.842 136.259ZM136.533 140.087V140.374C136.236 140.432 135.938 140.557 135.641 140.748C135.344 140.94 135.041 141.185 134.734 141.482L133.627 142.633L133.77 142.36L136.231 146.475C136.336 146.648 136.447 146.801 136.562 146.935C136.677 147.07 136.816 147.166 136.979 147.223V147.525C136.835 147.516 136.619 147.506 136.332 147.497C136.044 147.477 135.756 147.468 135.468 147.468C135.113 147.468 134.758 147.477 134.403 147.497C134.049 147.506 133.785 147.516 133.612 147.525V147.223C133.804 147.223 133.933 147.18 134.001 147.094C134.068 146.998 134.058 146.878 133.972 146.734L132.547 144.158C132.432 143.976 132.317 143.861 132.202 143.813C132.097 143.756 131.953 143.722 131.77 143.712V143.439C131.972 143.42 132.144 143.386 132.288 143.338C132.442 143.29 132.581 143.199 132.706 143.065L133.799 142C134.125 141.693 134.288 141.42 134.288 141.18C134.288 140.94 134.183 140.748 133.972 140.605C133.77 140.461 133.502 140.384 133.166 140.374V140.087C133.435 140.096 133.727 140.106 134.044 140.115C134.36 140.125 134.629 140.13 134.85 140.13C135.041 140.13 135.243 140.13 135.454 140.13C135.674 140.12 135.881 140.115 136.073 140.115C136.264 140.106 136.418 140.096 136.533 140.087ZM140.13 150.23C139.535 150.23 139.002 150.178 138.532 150.072C138.072 149.976 137.707 149.823 137.439 149.612C137.18 149.41 137.05 149.161 137.05 148.864C137.05 148.566 137.185 148.298 137.453 148.058C137.722 147.828 138.12 147.645 138.648 147.511L138.777 147.741C138.595 147.885 138.46 148.039 138.374 148.202C138.297 148.374 138.259 148.552 138.259 148.734C138.259 149.137 138.441 149.444 138.806 149.655C139.18 149.876 139.684 149.986 140.317 149.986C140.748 149.986 141.132 149.928 141.468 149.813C141.813 149.698 142.082 149.525 142.273 149.295C142.475 149.065 142.576 148.782 142.576 148.446C142.576 148.158 142.47 147.914 142.259 147.712C142.048 147.521 141.626 147.425 140.993 147.425H140.101C139.707 147.425 139.362 147.382 139.065 147.295C138.777 147.209 138.552 147.075 138.389 146.892C138.225 146.7 138.144 146.461 138.144 146.173C138.144 145.77 138.302 145.415 138.619 145.108C138.935 144.801 139.405 144.513 140.029 144.245L140.173 144.36C139.99 144.475 139.818 144.6 139.655 144.734C139.501 144.859 139.425 145.022 139.425 145.223C139.425 145.53 139.616 145.684 140 145.684H141.568C142.096 145.684 142.566 145.746 142.978 145.871C143.401 145.995 143.731 146.202 143.971 146.489C144.221 146.768 144.345 147.132 144.345 147.583C144.345 148.053 144.192 148.489 143.885 148.892C143.588 149.295 143.127 149.617 142.504 149.856C141.88 150.106 141.089 150.23 140.13 150.23ZM140.273 144.461C139.727 144.461 139.237 144.379 138.806 144.216C138.374 144.053 138.034 143.804 137.784 143.468C137.535 143.132 137.41 142.7 137.41 142.173C137.41 141.645 137.535 141.214 137.784 140.878C138.034 140.533 138.374 140.283 138.806 140.13C139.237 139.967 139.727 139.885 140.273 139.885C140.82 139.885 141.309 139.967 141.741 140.13C142.173 140.283 142.513 140.533 142.763 140.878C143.012 141.214 143.137 141.645 143.137 142.173C143.137 142.7 143.012 143.132 142.763 143.468C142.513 143.804 142.173 144.053 141.741 144.216C141.309 144.379 140.82 144.461 140.273 144.461ZM140.273 144.202C140.532 144.202 140.734 144.058 140.878 143.77C141.022 143.473 141.094 142.94 141.094 142.173C141.094 141.405 141.022 140.878 140.878 140.59C140.734 140.293 140.532 140.144 140.273 140.144C140.024 140.144 139.823 140.293 139.669 140.59C139.525 140.878 139.453 141.405 139.453 142.173C139.453 142.94 139.525 143.473 139.669 143.77C139.823 144.058 140.024 144.202 140.273 144.202ZM142.518 141.123L142.23 141.022C142.374 140.648 142.604 140.336 142.921 140.087C143.247 139.837 143.597 139.712 143.971 139.712C144.278 139.712 144.508 139.799 144.662 139.971C144.825 140.134 144.907 140.35 144.907 140.619C144.907 140.907 144.83 141.123 144.676 141.266C144.523 141.401 144.35 141.468 144.158 141.468C143.995 141.468 143.842 141.41 143.698 141.295C143.564 141.18 143.487 141.007 143.468 140.777C143.448 140.537 143.53 140.23 143.712 139.856L143.813 139.943C143.448 140.077 143.175 140.235 142.993 140.417C142.811 140.59 142.652 140.825 142.518 141.123Z" fill="#454545"/>
<defs>
<filter id="filter0_d_588_14000" x="0.2446" y="0" width="211.511" height="94.9234" filterUnits="userSpaceOnUse" color-interpolation-filters="sRGB">
<feFlood flood-opacity="0" result="BackgroundImageFix"/>
<feColorMatrix in="SourceAlpha" type="matrix" values="0 0 0 0 0 0 0 0 0 0 0 0 0 0 0 0 0 0 127 0" result="hardAlpha"/>
<feOffset dy="5.7554"/>
<feGaussianBlur stdDeviation="2.8777"/>
<feComposite in2="hardAlpha" operator="out"/>
<feColorMatrix type="matrix" values="0 0 0 0 0 0 0 0 0 0 0 0 0 0 0 0 0 0 0.25 0"/>
<feBlend mode="normal" in2="BackgroundImageFix" result="effect1_dropShadow_588_14000"/>
<feBlend mode="normal" in="SourceGraphic" in2="effect1_dropShadow_588_14000" result="shape"/>
</filter>
</defs>
</svg>
