<svg width="218" height="213" viewBox="0 0 218 213" fill="none" xmlns="http://www.w3.org/2000/svg">
<path d="M27.9575 169.312V72.395C27.9575 48.6409 47.2141 29.3843 70.9683 29.3843H146.084C169.838 29.3843 189.095 48.6409 189.095 72.395V169.312C189.095 193.066 169.838 212.323 146.084 212.323H70.9683C47.2141 212.323 27.9575 193.066 27.9575 169.312Z" fill="#F7E171"/>
<path d="M45.019 53.0806L45.8421 171.053" stroke="white" stroke-width="10.7527" stroke-linecap="round"/>
<g filter="url(#filter0_d_588_13976)">
<path d="M9 63.0283L32.431 27.4882L29.8531 25.5924V0H184.829V25.5924L182.222 27.4882L209 63.0283C204.119 69.8205 191.929 83.4047 182.222 83.4047C172.515 83.4047 163.393 69.8205 160.046 63.0283C156.699 59.0794 148.163 53.551 140.799 63.0283C133.435 72.5057 120.715 83.4047 113.603 83.4047C106.49 83.4047 95.4435 72.8848 86.4059 63.0283C77.3682 53.1719 68.9721 58.9215 65.9038 63.0283C63.1144 69.6625 54.1046 83.0256 40.3808 83.4047C26.6569 83.7838 13.742 69.9784 9 63.0283Z" fill="#EC875C"/>
</g>
<path d="M184.356 25.5928H30.8013V27.9624H184.356V25.5928Z" fill="#454545" stroke="#454545" stroke-width="2.15054"/>
<path d="M107.105 27.4883C93.6765 36.335 68.9055 59.7158 77.2468 82.4646C85.588 105.213 100.627 55.2924 107.105 27.4883ZM107.105 27.4883C103.313 45.0238 99.8058 81.6115 116.109 87.6779C132.412 93.7442 116.899 50.0791 107.105 27.4883ZM107.105 27.4883C114.214 51.8169 119.332 82.4646 109.474 107.109" stroke="#454545" stroke-width="6.45161" stroke-linecap="round" stroke-linejoin="round"/>
<rect x="62.0806" y="109.953" width="99.5261" height="52.1327" rx="21.5054" fill="white"/>
<path d="M99.2178 123.923V139.68C99.2178 140.752 99.4128 141.483 99.8028 141.873C100.217 142.263 100.9 142.458 101.85 142.458V143.226C101.363 143.202 100.644 143.177 99.6931 143.153C98.7669 143.104 97.8042 143.08 96.8049 143.08C95.5619 143.08 94.3555 143.104 93.1856 143.153C92.04 143.177 91.1504 143.202 90.5167 143.226V142.458C91.6135 142.458 92.4544 142.263 93.0393 141.873C93.6486 141.459 93.9533 140.655 93.9533 139.46V130.54C93.9533 129.37 93.8558 128.505 93.6608 127.944C93.4658 127.384 93.1003 127.018 92.5641 126.848C92.0279 126.677 91.2967 126.592 90.3705 126.592V125.787C92.4666 125.739 94.197 125.58 95.5619 125.312C96.9512 125.044 98.1698 124.581 99.2178 123.923ZM113.808 126.387V141.226C113.808 141.828 113.902 142.237 114.088 142.452C114.289 142.667 114.626 142.774 115.099 142.774V143.226C114.826 143.212 114.425 143.197 113.894 143.183C113.378 143.154 112.848 143.14 112.303 143.14C111.744 143.14 111.178 143.154 110.604 143.183C110.045 143.197 109.622 143.212 109.335 143.226V142.774C109.837 142.774 110.188 142.667 110.389 142.452C110.604 142.237 110.712 141.828 110.712 141.226V128.968C110.712 128.323 110.611 127.85 110.41 127.549C110.224 127.233 109.866 127.076 109.335 127.076V126.624C109.794 126.667 110.238 126.688 110.669 126.688C111.256 126.688 111.816 126.667 112.346 126.624C112.876 126.567 113.364 126.488 113.808 126.387ZM120.819 132.108V132.538C120.375 132.624 119.93 132.81 119.486 133.097C119.041 133.384 118.59 133.749 118.131 134.194L116.475 135.914L116.69 135.506L120.367 141.656C120.525 141.914 120.69 142.144 120.862 142.344C121.034 142.545 121.242 142.688 121.486 142.774V143.226C121.271 143.212 120.948 143.197 120.518 143.183C120.088 143.154 119.658 143.14 119.228 143.14C118.697 143.14 118.167 143.154 117.636 143.183C117.106 143.197 116.712 143.212 116.454 143.226V142.774C116.74 142.774 116.934 142.71 117.034 142.581C117.135 142.438 117.12 142.258 116.991 142.043L114.862 138.194C114.69 137.921 114.518 137.749 114.346 137.678C114.188 137.592 113.973 137.541 113.701 137.527V137.119C114.002 137.09 114.26 137.04 114.475 136.968C114.704 136.896 114.912 136.76 115.099 136.559L116.733 134.968C117.221 134.509 117.464 134.101 117.464 133.742C117.464 133.384 117.307 133.097 116.991 132.882C116.69 132.667 116.289 132.552 115.787 132.538V132.108C116.188 132.122 116.626 132.136 117.099 132.151C117.572 132.165 117.973 132.172 118.303 132.172C118.59 132.172 118.891 132.172 119.206 132.172C119.536 132.158 119.844 132.151 120.131 132.151C120.418 132.136 120.647 132.122 120.819 132.108ZM126.195 147.269C125.306 147.269 124.51 147.19 123.808 147.033C123.119 146.889 122.575 146.66 122.173 146.344C121.786 146.043 121.592 145.671 121.592 145.226C121.592 144.782 121.793 144.38 122.195 144.022C122.596 143.678 123.191 143.405 123.98 143.205L124.173 143.549C123.901 143.764 123.7 143.993 123.571 144.237C123.456 144.495 123.399 144.76 123.399 145.033C123.399 145.635 123.671 146.093 124.216 146.409C124.775 146.739 125.528 146.903 126.474 146.903C127.119 146.903 127.693 146.817 128.195 146.645C128.711 146.473 129.112 146.215 129.399 145.871C129.7 145.527 129.851 145.104 129.851 144.602C129.851 144.172 129.693 143.807 129.377 143.506C129.062 143.219 128.431 143.076 127.485 143.076H126.152C125.564 143.076 125.048 143.011 124.603 142.882C124.173 142.753 123.836 142.552 123.592 142.28C123.349 141.993 123.227 141.635 123.227 141.205C123.227 140.602 123.463 140.072 123.937 139.613C124.41 139.154 125.112 138.724 126.044 138.323L126.259 138.495C125.987 138.667 125.729 138.853 125.485 139.054C125.256 139.24 125.141 139.484 125.141 139.785C125.141 140.244 125.428 140.473 126.001 140.473H128.345C129.134 140.473 129.836 140.567 130.453 140.753C131.083 140.939 131.578 141.248 131.937 141.678C132.309 142.093 132.496 142.638 132.496 143.312C132.496 144.015 132.266 144.667 131.808 145.269C131.363 145.871 130.675 146.352 129.743 146.71C128.811 147.083 127.628 147.269 126.195 147.269ZM126.41 138.645C125.592 138.645 124.861 138.524 124.216 138.28C123.571 138.036 123.062 137.663 122.689 137.162C122.316 136.66 122.13 136.015 122.13 135.226C122.13 134.438 122.316 133.792 122.689 133.291C123.062 132.774 123.571 132.402 124.216 132.172C124.861 131.929 125.592 131.807 126.41 131.807C127.227 131.807 127.958 131.929 128.603 132.172C129.248 132.402 129.757 132.774 130.13 133.291C130.503 133.792 130.689 134.438 130.689 135.226C130.689 136.015 130.503 136.66 130.13 137.162C129.757 137.663 129.248 138.036 128.603 138.28C127.958 138.524 127.227 138.645 126.41 138.645ZM126.41 138.258C126.797 138.258 127.098 138.043 127.313 137.613C127.528 137.169 127.635 136.373 127.635 135.226C127.635 134.079 127.528 133.291 127.313 132.86C127.098 132.416 126.797 132.194 126.41 132.194C126.037 132.194 125.736 132.416 125.506 132.86C125.291 133.291 125.184 134.079 125.184 135.226C125.184 136.373 125.291 137.169 125.506 137.613C125.736 138.043 126.037 138.258 126.41 138.258ZM129.764 133.656L129.334 133.506C129.549 132.947 129.894 132.481 130.367 132.108C130.854 131.735 131.377 131.549 131.937 131.549C132.395 131.549 132.739 131.678 132.969 131.936C133.213 132.179 133.334 132.502 133.334 132.903C133.334 133.334 133.22 133.656 132.99 133.871C132.761 134.072 132.503 134.172 132.216 134.172C131.972 134.172 131.743 134.086 131.528 133.914C131.327 133.742 131.213 133.484 131.184 133.14C131.155 132.782 131.277 132.323 131.549 131.764L131.7 131.893C131.155 132.093 130.747 132.33 130.474 132.602C130.202 132.86 129.965 133.212 129.764 133.656Z" fill="#454545"/>
<defs>
<filter id="filter0_d_588_13976" x="0.397848" y="0" width="217.204" height="100.616" filterUnits="userSpaceOnUse" color-interpolation-filters="sRGB">
<feFlood flood-opacity="0" result="BackgroundImageFix"/>
<feColorMatrix in="SourceAlpha" type="matrix" values="0 0 0 0 0 0 0 0 0 0 0 0 0 0 0 0 0 0 127 0" result="hardAlpha"/>
<feOffset dy="8.60215"/>
<feGaussianBlur stdDeviation="4.30108"/>
<feComposite in2="hardAlpha" operator="out"/>
<feColorMatrix type="matrix" values="0 0 0 0 0 0 0 0 0 0 0 0 0 0 0 0 0 0 0.25 0"/>
<feBlend mode="normal" in2="BackgroundImageFix" result="effect1_dropShadow_588_13976"/>
<feBlend mode="normal" in="SourceGraphic" in2="effect1_dropShadow_588_13976" result="shape"/>
</filter>
</defs>
</svg>
