<svg width="216" height="214" viewBox="0 0 216 214" fill="none" xmlns="http://www.w3.org/2000/svg">
<path d="M26.8647 173.899V69.5988C26.8647 47.8835 44.4685 30.2798 66.1838 30.2798H148.683C170.398 30.2798 188.002 47.8835 188.002 69.5988V173.899C188.002 195.615 170.398 213.218 148.683 213.218H66.1838C44.4685 213.218 26.8647 195.615 26.8647 173.899Z" fill="#F7E171"/>
<path d="M43.0225 53.9678V164.061" stroke="white" stroke-width="9.82975" stroke-linecap="round"/>
<g filter="url(#filter0_d_588_13984)">
<path d="M7.90723 63.9239L31.3382 28.3837L28.7603 26.488V0.895508H183.737V26.488L181.129 28.3837L207.907 63.9239C203.026 70.716 190.836 84.3003 181.129 84.3003C171.422 84.3003 162.301 70.716 158.953 63.9239C155.606 59.975 147.07 54.4465 139.706 63.9239C132.342 73.4013 119.623 84.3003 112.51 84.3003C105.397 84.3003 94.3507 73.7804 85.3131 63.9239C76.2754 54.0674 67.8793 59.817 64.811 63.9239C62.0216 70.5581 53.0118 83.9212 39.288 84.3003C25.5641 84.6794 12.6492 70.874 7.90723 63.9239Z" fill="#DDA1CC"/>
</g>
<path d="M183.263 26.4878H29.7085V28.8575H183.263V26.4878Z" fill="#454545" stroke="#454545" stroke-width="1.96595"/>
<path d="M106.012 28.3833C92.5837 37.2301 67.8128 60.6108 76.154 83.3597C84.4952 106.109 99.5347 56.1874 106.012 28.3833ZM106.012 28.3833C102.22 45.9189 98.713 82.5066 115.016 88.5729C131.32 94.6393 115.806 50.9742 106.012 28.3833ZM106.012 28.3833C113.121 52.7119 118.239 83.3597 108.381 108.004" stroke="#454545" stroke-width="5.89785" stroke-linecap="round" stroke-linejoin="round"/>
<rect x="60.9878" y="110.848" width="99.5261" height="52.1328" rx="19.6595" fill="white"/>
<path d="M97.0722 130.631C98.8888 130.631 100.328 131.021 101.389 131.799C102.451 132.578 102.982 133.686 102.982 135.125C102.982 136.046 102.746 136.883 102.274 137.638C101.826 138.393 101.224 139.112 100.469 139.797C99.7145 140.457 98.9006 141.082 98.0277 141.672C97.1784 142.262 96.3527 142.852 95.5506 143.441C94.7485 144.008 94.0643 144.597 93.4982 145.211H101.142C102.109 145.211 102.722 145.093 102.982 144.857C103.241 144.621 103.418 144.208 103.513 143.618H104.256C104.256 145.199 104.268 146.426 104.291 147.299C104.315 148.172 104.35 148.938 104.397 149.599C104.185 149.552 103.796 149.516 103.23 149.493C102.663 149.469 102.015 149.445 101.283 149.422C100.552 149.422 99.8324 149.422 99.1247 149.422H88.8271V148.75C89.4876 148.042 90.3015 147.263 91.2688 146.414C92.236 145.565 93.1797 144.621 94.0997 143.583C95.0434 142.545 95.8337 141.424 96.4707 140.221C97.1076 138.994 97.4261 137.685 97.4261 136.293C97.4261 135.019 97.143 134.099 96.5768 133.533C96.0106 132.967 95.1967 132.684 94.1351 132.684C93.1207 132.684 92.2242 132.92 91.4457 133.392C90.6908 133.84 90.0066 134.512 89.3932 135.409L88.7917 135.055C89.2635 134.253 89.8533 133.521 90.561 132.861C91.2924 132.177 92.1888 131.634 93.2504 131.233C94.3121 130.832 95.586 130.631 97.0722 130.631ZM115.833 134.028V147.594C115.833 148.144 115.918 148.518 116.088 148.714C116.272 148.911 116.58 149.009 117.012 149.009V149.422C116.763 149.409 116.396 149.396 115.911 149.383C115.439 149.356 114.955 149.343 114.456 149.343C113.945 149.343 113.428 149.356 112.903 149.383C112.392 149.396 112.006 149.409 111.743 149.422V149.009C112.202 149.009 112.523 148.911 112.707 148.714C112.903 148.518 113.002 148.144 113.002 147.594V136.388C113.002 135.798 112.91 135.365 112.726 135.09C112.556 134.802 112.228 134.658 111.743 134.658V134.245C112.163 134.284 112.569 134.304 112.962 134.304C113.5 134.304 114.011 134.284 114.496 134.245C114.981 134.192 115.426 134.12 115.833 134.028ZM122.242 139.258V139.651C121.835 139.73 121.429 139.9 121.023 140.162C120.616 140.424 120.204 140.759 119.784 141.165L118.27 142.738L118.467 142.364L121.829 147.987C121.973 148.223 122.124 148.432 122.281 148.616C122.438 148.799 122.628 148.93 122.851 149.009V149.422C122.654 149.409 122.36 149.396 121.966 149.383C121.573 149.356 121.18 149.343 120.787 149.343C120.302 149.343 119.817 149.356 119.332 149.383C118.847 149.396 118.487 149.409 118.251 149.422V149.009C118.513 149.009 118.69 148.95 118.782 148.832C118.873 148.701 118.86 148.537 118.742 148.341L116.796 144.822C116.639 144.573 116.481 144.415 116.324 144.35C116.18 144.271 115.983 144.225 115.734 144.212V143.839C116.01 143.812 116.245 143.766 116.442 143.701C116.652 143.635 116.842 143.511 117.012 143.327L118.506 141.873C118.952 141.453 119.175 141.08 119.175 140.752C119.175 140.424 119.031 140.162 118.742 139.966C118.467 139.769 118.1 139.664 117.641 139.651V139.258C118.008 139.271 118.408 139.284 118.841 139.297C119.273 139.31 119.64 139.317 119.941 139.317C120.204 139.317 120.479 139.317 120.767 139.317C121.069 139.304 121.35 139.297 121.613 139.297C121.875 139.284 122.084 139.271 122.242 139.258ZM127.156 153.118C126.343 153.118 125.616 153.046 124.974 152.902C124.344 152.771 123.846 152.561 123.479 152.273C123.126 151.997 122.949 151.657 122.949 151.25C122.949 150.844 123.132 150.477 123.499 150.149C123.866 149.835 124.41 149.586 125.131 149.402L125.308 149.717C125.059 149.913 124.875 150.123 124.757 150.346C124.652 150.582 124.6 150.824 124.6 151.073C124.6 151.624 124.849 152.043 125.347 152.331C125.858 152.633 126.546 152.784 127.411 152.784C128.001 152.784 128.525 152.705 128.984 152.548C129.456 152.39 129.823 152.155 130.085 151.84C130.36 151.525 130.498 151.139 130.498 150.68C130.498 150.287 130.354 149.953 130.065 149.677C129.777 149.415 129.2 149.284 128.335 149.284H127.116C126.579 149.284 126.107 149.225 125.701 149.107C125.308 148.989 125 148.806 124.777 148.557C124.554 148.295 124.443 147.967 124.443 147.574C124.443 147.023 124.659 146.538 125.091 146.119C125.524 145.7 126.166 145.306 127.018 144.94L127.215 145.097C126.966 145.254 126.73 145.424 126.507 145.608C126.297 145.778 126.192 146.001 126.192 146.276C126.192 146.696 126.455 146.905 126.979 146.905H129.122C129.843 146.905 130.485 146.991 131.048 147.161C131.625 147.331 132.077 147.613 132.405 148.006C132.746 148.386 132.916 148.885 132.916 149.501C132.916 150.143 132.706 150.739 132.287 151.29C131.881 151.84 131.251 152.279 130.4 152.607C129.548 152.947 128.466 153.118 127.156 153.118ZM127.352 145.234C126.605 145.234 125.937 145.123 125.347 144.9C124.757 144.677 124.292 144.337 123.951 143.878C123.61 143.419 123.44 142.829 123.44 142.109C123.44 141.388 123.61 140.798 123.951 140.339C124.292 139.867 124.757 139.527 125.347 139.317C125.937 139.094 126.605 138.983 127.352 138.983C128.099 138.983 128.768 139.094 129.358 139.317C129.947 139.527 130.413 139.867 130.753 140.339C131.094 140.798 131.265 141.388 131.265 142.109C131.265 142.829 131.094 143.419 130.753 143.878C130.413 144.337 129.947 144.677 129.358 144.9C128.768 145.123 128.099 145.234 127.352 145.234ZM127.352 144.881C127.706 144.881 127.981 144.684 128.178 144.291C128.375 143.884 128.473 143.157 128.473 142.109C128.473 141.06 128.375 140.339 128.178 139.946C127.981 139.54 127.706 139.337 127.352 139.337C127.012 139.337 126.736 139.54 126.527 139.946C126.33 140.339 126.232 141.06 126.232 142.109C126.232 143.157 126.33 143.884 126.527 144.291C126.736 144.684 127.012 144.881 127.352 144.881ZM130.419 140.673L130.026 140.536C130.223 140.025 130.537 139.599 130.97 139.258C131.415 138.917 131.894 138.747 132.405 138.747C132.824 138.747 133.139 138.865 133.348 139.101C133.571 139.323 133.683 139.618 133.683 139.985C133.683 140.379 133.578 140.673 133.368 140.87C133.158 141.053 132.923 141.145 132.66 141.145C132.438 141.145 132.228 141.067 132.031 140.909C131.848 140.752 131.743 140.516 131.717 140.202C131.691 139.874 131.802 139.455 132.051 138.943L132.189 139.061C131.691 139.245 131.317 139.461 131.068 139.71C130.819 139.946 130.603 140.267 130.419 140.673Z" fill="#454545"/>
<defs>
<filter id="filter0_d_588_13984" x="0.0434256" y="0.895508" width="215.728" height="99.1402" filterUnits="userSpaceOnUse" color-interpolation-filters="sRGB">
<feFlood flood-opacity="0" result="BackgroundImageFix"/>
<feColorMatrix in="SourceAlpha" type="matrix" values="0 0 0 0 0 0 0 0 0 0 0 0 0 0 0 0 0 0 127 0" result="hardAlpha"/>
<feOffset dy="7.8638"/>
<feGaussianBlur stdDeviation="3.9319"/>
<feComposite in2="hardAlpha" operator="out"/>
<feColorMatrix type="matrix" values="0 0 0 0 0 0 0 0 0 0 0 0 0 0 0 0 0 0 0.25 0"/>
<feBlend mode="normal" in2="BackgroundImageFix" result="effect1_dropShadow_588_13984"/>
<feBlend mode="normal" in="SourceGraphic" in2="effect1_dropShadow_588_13984" result="shape"/>
</filter>
</defs>
</svg>
