<svg width="222" height="213" viewBox="0 0 222 213" fill="none" xmlns="http://www.w3.org/2000/svg">
<path d="M29.9575 159.692V82.0159C29.9575 52.9483 53.5215 29.3843 82.5892 29.3843H138.463C167.531 29.3843 191.095 52.9482 191.095 82.0159V159.691C191.095 188.759 167.531 212.323 138.463 212.323H82.5892C53.5215 212.323 29.9575 188.759 29.9575 159.692Z" fill="#F7E171"/>
<path d="M48.7466 53.0537V163.185" stroke="white" stroke-width="13.1579" stroke-linecap="round"/>
<g filter="url(#filter0_d_588_13968)">
<path d="M11 63.0285L34.431 27.4882L31.8531 25.5925V0H186.829V25.5925L184.222 27.4882L211 63.0285C206.119 69.8206 193.929 83.4049 184.222 83.4049C174.515 83.4049 165.393 69.8206 162.046 63.0285C158.699 59.0795 150.163 53.5511 142.799 63.0285C135.435 72.5059 122.715 83.4049 115.603 83.4049C108.49 83.4049 97.4435 72.885 88.4059 63.0285C79.3682 53.172 70.9721 58.9216 67.9038 63.0285C65.1144 69.6626 56.1046 83.0258 42.3808 83.4049C28.6569 83.784 15.742 69.9786 11 63.0285Z" fill="#86C6B5"/>
</g>
<path d="M186.356 25.5923H32.8013V27.962H186.356V25.5923Z" fill="#454545" stroke="#454545" stroke-width="2.63158"/>
<path d="M109.104 27.4883C95.6762 36.3351 70.9053 59.7158 79.2465 82.4647C87.5878 105.214 102.627 55.2925 109.104 27.4883ZM109.104 27.4883C105.313 45.0239 101.806 81.6116 118.109 87.678C134.412 93.7444 118.899 50.0792 109.104 27.4883ZM109.104 27.4883C116.213 51.8169 121.332 82.4647 111.474 107.109" stroke="#454545" stroke-width="7.89475" stroke-linecap="round" stroke-linejoin="round"/>
<rect x="64.0806" y="109.953" width="99.5261" height="52.1328" rx="26.0664" fill="white"/>
<path d="M76.6211 125.127C78.3053 125.127 79.7895 125.474 81.0737 126.169C82.3579 126.842 83.3685 127.811 84.1053 129.074C84.8422 130.316 85.2106 131.779 85.2106 133.463C85.2106 135.148 84.8316 136.663 84.0737 138.011C83.3369 139.337 82.2948 140.39 80.9474 141.169C79.6211 141.948 78.0632 142.337 76.2737 142.337C74.6316 142.337 73.1579 141.99 71.8527 141.295C70.5685 140.6 69.5474 139.632 68.7895 138.39C68.0527 137.127 67.6842 135.653 67.6842 133.969C67.6842 132.306 68.0527 130.811 68.7895 129.484C69.5263 128.137 70.5685 127.074 71.9158 126.295C73.2632 125.516 74.8316 125.127 76.6211 125.127ZM76.3369 125.695C75.2 125.695 74.2632 126.421 73.5264 127.874C72.8106 129.306 72.4527 131.306 72.4527 133.874C72.4527 135.769 72.6421 137.295 73.0211 138.453C73.4 139.611 73.8948 140.453 74.5053 140.979C75.1369 141.506 75.8211 141.769 76.5579 141.769C77.6948 141.769 78.6211 141.042 79.3369 139.59C80.0737 138.137 80.4421 136.127 80.4421 133.558C80.4421 131.663 80.2527 130.137 79.8737 128.979C79.4948 127.821 78.9895 126.99 78.3579 126.484C77.7474 125.958 77.0737 125.695 76.3369 125.695ZM90.88 137.474C91.701 137.474 92.3537 137.695 92.8379 138.137C93.3221 138.558 93.5642 139.148 93.5642 139.906C93.5642 140.663 93.3221 141.263 92.8379 141.706C92.3537 142.127 91.701 142.337 90.88 142.337C90.0589 142.337 89.4063 142.127 88.9221 141.706C88.4379 141.263 88.1958 140.663 88.1958 139.906C88.1958 139.148 88.4379 138.558 88.9221 138.137C89.4063 137.695 90.0589 137.474 90.88 137.474ZM103.813 125.127C105.434 125.127 106.718 125.474 107.665 126.169C108.613 126.863 109.086 127.853 109.086 129.137C109.086 129.958 108.876 130.706 108.455 131.379C108.055 132.053 107.518 132.695 106.844 133.306C106.17 133.895 105.444 134.453 104.665 134.979C103.907 135.506 103.17 136.032 102.455 136.558C101.739 137.063 101.128 137.59 100.623 138.137H107.444C108.307 138.137 108.855 138.032 109.086 137.821C109.318 137.611 109.476 137.242 109.56 136.716H110.223C110.223 138.127 110.234 139.221 110.255 140C110.276 140.779 110.307 141.463 110.349 142.053C110.16 142.011 109.813 141.979 109.307 141.958C108.802 141.937 108.223 141.916 107.57 141.895C106.918 141.895 106.276 141.895 105.644 141.895H96.4547V141.295C97.0441 140.663 97.7705 139.969 98.6336 139.211C99.4968 138.453 100.339 137.611 101.16 136.684C102.002 135.758 102.707 134.758 103.276 133.684C103.844 132.59 104.128 131.421 104.128 130.179C104.128 129.042 103.876 128.221 103.37 127.716C102.865 127.211 102.139 126.958 101.192 126.958C100.286 126.958 99.4862 127.169 98.7915 127.59C98.1178 127.99 97.5073 128.59 96.9599 129.39L96.4231 129.074C96.8441 128.358 97.3705 127.706 98.002 127.116C98.6547 126.506 99.4547 126.021 100.402 125.663C101.349 125.306 102.486 125.127 103.813 125.127ZM123.816 124.369C123.816 125.758 123.826 126.842 123.847 127.621C123.869 128.379 123.9 129.063 123.942 129.674C123.774 129.632 123.447 129.6 122.963 129.579C122.5 129.558 121.963 129.548 121.353 129.548C120.742 129.527 120.142 129.516 119.553 129.516H114.69L114.184 134.916C114.69 134.558 115.332 134.263 116.111 134.032C116.911 133.779 117.858 133.653 118.953 133.653C120.363 133.653 121.521 133.874 122.426 134.316C123.332 134.758 124.005 135.358 124.447 136.116C124.89 136.874 125.111 137.716 125.111 138.642C125.111 139.863 124.742 140.958 124.005 141.927C123.29 142.895 122.321 143.727 121.1 144.421C119.879 145.116 118.532 145.642 117.058 146C115.584 146.379 114.1 146.569 112.605 146.569V146C113.574 146 114.521 145.842 115.447 145.527C116.395 145.211 117.237 144.748 117.974 144.137C118.711 143.527 119.3 142.779 119.742 141.895C120.184 141.011 120.405 139.99 120.405 138.832C120.405 137.527 120.1 136.516 119.49 135.8C118.879 135.084 117.974 134.727 116.774 134.727C116.163 134.727 115.637 134.811 115.195 134.979C114.774 135.127 114.353 135.348 113.932 135.642L113.49 135.358L114.5 125.474C114.732 125.516 114.995 125.548 115.29 125.569C115.605 125.59 115.911 125.6 116.205 125.6H121.416C122.026 125.6 122.447 125.506 122.679 125.316C122.932 125.127 123.09 124.811 123.153 124.369H123.816ZM137.073 125.411V139.937C137.073 140.527 137.164 140.927 137.347 141.137C137.543 141.348 137.873 141.453 138.336 141.453V141.895C138.07 141.881 137.677 141.867 137.157 141.853C136.652 141.825 136.133 141.811 135.6 141.811C135.052 141.811 134.498 141.825 133.936 141.853C133.389 141.867 132.975 141.881 132.694 141.895V141.453C133.186 141.453 133.529 141.348 133.726 141.137C133.936 140.927 134.042 140.527 134.042 139.937V127.937C134.042 127.306 133.943 126.842 133.747 126.548C133.564 126.239 133.214 126.084 132.694 126.084V125.642C133.143 125.684 133.579 125.706 134 125.706C134.575 125.706 135.122 125.684 135.642 125.642C136.161 125.586 136.638 125.509 137.073 125.411ZM143.936 131.011V131.432C143.501 131.516 143.066 131.699 142.631 131.979C142.196 132.26 141.754 132.618 141.305 133.053L139.684 134.737L139.894 134.337L143.494 140.358C143.649 140.611 143.81 140.835 143.979 141.032C144.147 141.228 144.35 141.369 144.589 141.453V141.895C144.379 141.881 144.063 141.867 143.642 141.853C143.221 141.825 142.8 141.811 142.379 141.811C141.859 141.811 141.34 141.825 140.821 141.853C140.301 141.867 139.915 141.881 139.663 141.895V141.453C139.943 141.453 140.133 141.39 140.231 141.263C140.329 141.123 140.315 140.948 140.189 140.737L138.105 136.969C137.936 136.702 137.768 136.534 137.6 136.463C137.445 136.379 137.235 136.33 136.968 136.316V135.916C137.263 135.888 137.515 135.839 137.726 135.769C137.95 135.699 138.154 135.565 138.336 135.369L139.936 133.811C140.414 133.362 140.652 132.962 140.652 132.611C140.652 132.26 140.498 131.979 140.189 131.769C139.894 131.558 139.501 131.446 139.01 131.432V131.011C139.403 131.025 139.831 131.039 140.294 131.053C140.757 131.067 141.15 131.074 141.473 131.074C141.754 131.074 142.049 131.074 142.357 131.074C142.68 131.06 142.982 131.053 143.263 131.053C143.543 131.039 143.768 131.025 143.936 131.011ZM149.199 145.853C148.329 145.853 147.55 145.776 146.862 145.621C146.188 145.481 145.655 145.256 145.262 144.948C144.883 144.653 144.694 144.288 144.694 143.853C144.694 143.418 144.89 143.025 145.283 142.674C145.676 142.337 146.258 142.07 147.03 141.874L147.22 142.211C146.953 142.421 146.757 142.646 146.63 142.884C146.518 143.137 146.462 143.397 146.462 143.663C146.462 144.253 146.729 144.702 147.262 145.011C147.809 145.334 148.546 145.495 149.472 145.495C150.104 145.495 150.665 145.411 151.157 145.242C151.662 145.074 152.055 144.821 152.336 144.484C152.63 144.148 152.778 143.734 152.778 143.242C152.778 142.821 152.623 142.463 152.315 142.169C152.006 141.888 151.388 141.748 150.462 141.748H149.157C148.581 141.748 148.076 141.684 147.641 141.558C147.22 141.432 146.89 141.235 146.651 140.969C146.413 140.688 146.294 140.337 146.294 139.916C146.294 139.327 146.525 138.807 146.988 138.358C147.451 137.909 148.139 137.488 149.051 137.095L149.262 137.263C148.995 137.432 148.743 137.614 148.504 137.811C148.279 137.993 148.167 138.232 148.167 138.527C148.167 138.976 148.448 139.2 149.009 139.2H151.304C152.076 139.2 152.764 139.292 153.367 139.474C153.985 139.656 154.469 139.958 154.82 140.379C155.185 140.786 155.367 141.32 155.367 141.979C155.367 142.667 155.143 143.306 154.694 143.895C154.258 144.484 153.585 144.955 152.672 145.306C151.76 145.67 150.602 145.853 149.199 145.853ZM149.409 137.411C148.609 137.411 147.894 137.292 147.262 137.053C146.63 136.814 146.132 136.449 145.767 135.958C145.402 135.467 145.22 134.835 145.22 134.063C145.22 133.292 145.402 132.66 145.767 132.169C146.132 131.663 146.63 131.299 147.262 131.074C147.894 130.835 148.609 130.716 149.409 130.716C150.209 130.716 150.925 130.835 151.557 131.074C152.188 131.299 152.686 131.663 153.051 132.169C153.416 132.66 153.599 133.292 153.599 134.063C153.599 134.835 153.416 135.467 153.051 135.958C152.686 136.449 152.188 136.814 151.557 137.053C150.925 137.292 150.209 137.411 149.409 137.411ZM149.409 137.032C149.788 137.032 150.083 136.821 150.294 136.4C150.504 135.965 150.609 135.186 150.609 134.063C150.609 132.941 150.504 132.169 150.294 131.748C150.083 131.313 149.788 131.095 149.409 131.095C149.044 131.095 148.75 131.313 148.525 131.748C148.315 132.169 148.209 132.941 148.209 134.063C148.209 135.186 148.315 135.965 148.525 136.4C148.75 136.821 149.044 137.032 149.409 137.032ZM152.694 132.527L152.272 132.379C152.483 131.832 152.82 131.376 153.283 131.011C153.76 130.646 154.272 130.463 154.82 130.463C155.269 130.463 155.606 130.59 155.83 130.842C156.069 131.081 156.188 131.397 156.188 131.79C156.188 132.211 156.076 132.527 155.851 132.737C155.627 132.934 155.374 133.032 155.094 133.032C154.855 133.032 154.63 132.948 154.42 132.779C154.223 132.611 154.111 132.358 154.083 132.021C154.055 131.67 154.174 131.221 154.441 130.674L154.588 130.8C154.055 130.997 153.655 131.228 153.388 131.495C153.122 131.748 152.89 132.091 152.694 132.527Z" fill="#454545"/>
<defs>
<filter id="filter0_d_588_13968" x="0.473672" y="0" width="221.053" height="104.465" filterUnits="userSpaceOnUse" color-interpolation-filters="sRGB">
<feFlood flood-opacity="0" result="BackgroundImageFix"/>
<feColorMatrix in="SourceAlpha" type="matrix" values="0 0 0 0 0 0 0 0 0 0 0 0 0 0 0 0 0 0 127 0" result="hardAlpha"/>
<feOffset dy="10.5263"/>
<feGaussianBlur stdDeviation="5.26316"/>
<feComposite in2="hardAlpha" operator="out"/>
<feColorMatrix type="matrix" values="0 0 0 0 0 0 0 0 0 0 0 0 0 0 0 0 0 0 0.25 0"/>
<feBlend mode="normal" in2="BackgroundImageFix" result="effect1_dropShadow_588_13968"/>
<feBlend mode="normal" in="SourceGraphic" in2="effect1_dropShadow_588_13968" result="shape"/>
</filter>
</defs>
</svg>
