<svg width="219" height="225" viewBox="0 0 219 225" fill="none" xmlns="http://www.w3.org/2000/svg">
<path d="M24 204V51C24 39.9543 32.9543 31 44 31H174C185.046 31 194 39.9543 194 51V204C194 215.046 185.046 224 174 224H44C32.9543 224 24 215.046 24 204Z" fill="#F7E171" stroke="white"/>
<path d="M42 56V200" stroke="white" stroke-width="5" stroke-linecap="round"/>
<g filter="url(#filter0_d_535_15450)">
<path d="M4 66.4949L28.7197 29L26 27V0H189.5V27L186.749 29L215 66.4949C209.85 73.6606 196.99 87.9919 186.749 87.9919C176.508 87.9919 166.885 73.6606 163.354 66.4949C159.822 62.3288 150.817 56.4962 143.048 66.4949C135.279 76.4935 121.86 87.9919 114.356 87.9919C106.851 87.9919 95.1979 76.8934 85.6632 66.4949C76.1284 56.0963 67.2706 62.1621 64.0335 66.4949C61.0907 73.4939 51.5854 87.592 37.1067 87.9919C22.628 88.3919 9.00279 73.8272 4 66.4949Z" fill="#86C6B5"/>
</g>
<path d="M189 27H27V29.5H189V27Z" fill="#454545" stroke="#454545"/>
<path d="M107.5 29C93.3335 38.3333 67.2002 63 76.0002 87C84.8002 111 100.667 58.3333 107.5 29ZM107.5 29C103.5 47.5 99.8 86.1 117 92.5C134.2 98.9 117.833 52.8333 107.5 29ZM107.5 29C115 54.6667 120.4 87 110 113" stroke="#454545" stroke-width="3" stroke-linecap="round" stroke-linejoin="round"/>
<rect x="60" y="116" width="105" height="55" rx="10" fill="white"/>
<path d="M87.12 132.76C89.2533 132.76 91.1333 133.2 92.76 134.08C94.3867 134.933 95.6667 136.16 96.6 137.76C97.5333 139.333 98 141.187 98 143.32C98 145.453 97.52 147.373 96.56 149.08C95.6267 150.76 94.3067 152.093 92.6 153.08C90.92 154.067 88.9467 154.56 86.68 154.56C84.6 154.56 82.7333 154.12 81.08 153.24C79.4533 152.36 78.16 151.133 77.2 149.56C76.2667 147.96 75.8 146.093 75.8 143.96C75.8 141.853 76.2667 139.96 77.2 138.28C78.1333 136.573 79.4533 135.227 81.16 134.24C82.8667 133.253 84.8533 132.76 87.12 132.76ZM86.76 133.48C85.32 133.48 84.1333 134.4 83.2 136.24C82.2933 138.053 81.84 140.587 81.84 143.84C81.84 146.24 82.08 148.173 82.56 149.64C83.04 151.107 83.6667 152.173 84.44 152.84C85.24 153.507 86.1067 153.84 87.04 153.84C88.48 153.84 89.6533 152.92 90.56 151.08C91.4933 149.24 91.96 146.693 91.96 143.44C91.96 141.04 91.72 139.107 91.24 137.64C90.76 136.173 90.12 135.12 89.32 134.48C88.5467 133.813 87.6933 133.48 86.76 133.48ZM105.181 148.4C106.221 148.4 107.048 148.68 107.661 149.24C108.275 149.773 108.581 150.52 108.581 151.48C108.581 152.44 108.275 153.2 107.661 153.76C107.048 154.293 106.221 154.56 105.181 154.56C104.141 154.56 103.315 154.293 102.701 153.76C102.088 153.2 101.781 152.44 101.781 151.48C101.781 150.52 102.088 149.773 102.701 149.24C103.315 148.68 104.141 148.4 105.181 148.4ZM121.563 132.76C123.616 132.76 125.243 133.2 126.443 134.08C127.643 134.96 128.243 136.213 128.243 137.84C128.243 138.88 127.976 139.827 127.443 140.68C126.936 141.533 126.256 142.347 125.403 143.12C124.549 143.867 123.629 144.573 122.643 145.24C121.683 145.907 120.749 146.573 119.843 147.24C118.936 147.88 118.163 148.547 117.523 149.24H126.163C127.256 149.24 127.949 149.107 128.243 148.84C128.536 148.573 128.736 148.107 128.843 147.44H129.683C129.683 149.227 129.696 150.613 129.723 151.6C129.749 152.587 129.789 153.453 129.843 154.2C129.603 154.147 129.163 154.107 128.523 154.08C127.883 154.053 127.149 154.027 126.323 154C125.496 154 124.683 154 123.883 154H112.243V153.24C112.989 152.44 113.909 151.56 115.003 150.6C116.096 149.64 117.163 148.573 118.203 147.4C119.269 146.227 120.163 144.96 120.883 143.6C121.603 142.213 121.963 140.733 121.963 139.16C121.963 137.72 121.643 136.68 121.003 136.04C120.363 135.4 119.443 135.08 118.243 135.08C117.096 135.08 116.083 135.347 115.203 135.88C114.349 136.387 113.576 137.147 112.883 138.16L112.203 137.76C112.736 136.853 113.403 136.027 114.203 135.28C115.029 134.507 116.043 133.893 117.243 133.44C118.443 132.987 119.883 132.76 121.563 132.76ZM146.9 131.8C146.9 133.56 146.913 134.933 146.94 135.92C146.967 136.88 147.007 137.747 147.06 138.52C146.847 138.467 146.433 138.427 145.82 138.4C145.233 138.373 144.553 138.36 143.78 138.36C143.007 138.333 142.247 138.32 141.5 138.32H135.34L134.7 145.16C135.34 144.707 136.153 144.333 137.14 144.04C138.153 143.72 139.353 143.56 140.74 143.56C142.527 143.56 143.993 143.84 145.14 144.4C146.287 144.96 147.14 145.72 147.7 146.68C148.26 147.64 148.54 148.707 148.54 149.88C148.54 151.427 148.073 152.813 147.14 154.04C146.233 155.267 145.007 156.32 143.46 157.2C141.913 158.08 140.207 158.747 138.34 159.2C136.473 159.68 134.593 159.92 132.7 159.92V159.2C133.927 159.2 135.127 159 136.3 158.6C137.5 158.2 138.567 157.613 139.5 156.84C140.433 156.067 141.18 155.12 141.74 154C142.3 152.88 142.58 151.587 142.58 150.12C142.58 148.467 142.193 147.187 141.42 146.28C140.647 145.373 139.5 144.92 137.98 144.92C137.207 144.92 136.54 145.027 135.98 145.24C135.447 145.427 134.913 145.707 134.38 146.08L133.82 145.72L135.1 133.2C135.393 133.253 135.727 133.293 136.1 133.32C136.5 133.347 136.887 133.36 137.26 133.36H143.86C144.633 133.36 145.167 133.24 145.46 133C145.78 132.76 145.98 132.36 146.06 131.8H146.9Z" fill="#454545"/>
<defs>
<filter id="filter0_d_535_15450" x="0" y="0" width="219" height="96" filterUnits="userSpaceOnUse" color-interpolation-filters="sRGB">
<feFlood flood-opacity="0" result="BackgroundImageFix"/>
<feColorMatrix in="SourceAlpha" type="matrix" values="0 0 0 0 0 0 0 0 0 0 0 0 0 0 0 0 0 0 127 0" result="hardAlpha"/>
<feOffset dy="4"/>
<feGaussianBlur stdDeviation="2"/>
<feComposite in2="hardAlpha" operator="out"/>
<feColorMatrix type="matrix" values="0 0 0 0 0 0 0 0 0 0 0 0 0 0 0 0 0 0 0.25 0"/>
<feBlend mode="normal" in2="BackgroundImageFix" result="effect1_dropShadow_535_15450"/>
<feBlend mode="normal" in="SourceGraphic" in2="effect1_dropShadow_535_15450" result="shape"/>
</filter>
</defs>
</svg>
