<svg width="214" height="213" viewBox="0 0 214 213" fill="none" xmlns="http://www.w3.org/2000/svg">
<path d="M26.2432 179.318V62.7306C26.2432 44.4083 41.0963 29.5552 59.4186 29.5552H154.205C172.527 29.5552 187.381 44.4083 187.381 62.7305V179.318C187.381 197.64 172.527 212.494 154.205 212.494H59.4186C41.0963 212.494 26.2432 197.64 26.2432 179.318Z" fill="#F7E171"/>
<path d="M43.3047 53.251V189.744" stroke="white" stroke-width="8.29385" stroke-linecap="round"/>
<g filter="url(#filter0_d_588_13992)">
<path d="M7.28564 63.1992L30.7166 27.659L28.1387 25.7633V0.170898H183.115V25.7633L180.507 27.659L207.286 63.1992C202.404 69.9913 190.215 83.5756 180.507 83.5756C170.8 83.5756 161.679 69.9913 158.332 63.1992C154.984 59.2503 146.449 53.7218 139.085 63.1992C131.721 72.6766 119.001 83.5756 111.888 83.5756C104.775 83.5756 93.7292 73.0557 84.6915 63.1992C75.6538 53.3427 67.2577 59.0923 64.1894 63.1992C61.4 69.8334 52.3902 83.1965 38.6664 83.5756C24.9425 83.9547 12.0276 70.1493 7.28564 63.1992Z" fill="#E1E1E1"/>
</g>
<path d="M182.641 25.7632H29.0869V28.1329H182.641V25.7632Z" fill="#454545" stroke="#454545" stroke-width="1.65877"/>
<path d="M105.39 27.6587C91.9621 36.5055 67.1912 59.8862 75.5324 82.635C83.8736 105.384 98.9131 55.4628 105.39 27.6587ZM105.39 27.6587C101.599 45.1942 98.0915 81.7819 114.395 87.8483C130.698 93.9146 115.185 50.2495 105.39 27.6587ZM105.39 27.6587C112.499 51.9873 117.618 82.635 107.76 107.28" stroke="#454545" stroke-width="4.97631" stroke-linecap="round" stroke-linejoin="round"/>
<rect x="60.3662" y="110.123" width="99.5261" height="52.1327" rx="16.5877" fill="white"/>
<path d="M103.317 128.285C103.317 129.745 103.328 130.884 103.35 131.702C103.373 132.498 103.406 133.217 103.45 133.858C103.273 133.814 102.93 133.781 102.422 133.759C101.935 133.737 101.371 133.726 100.73 133.726C100.088 133.704 99.4579 133.693 98.8386 133.693H93.7296L93.1988 139.366C93.7296 138.99 94.4042 138.68 95.2225 138.437C96.0629 138.171 97.0582 138.038 98.2083 138.038C99.6901 138.038 100.907 138.271 101.858 138.735C102.809 139.2 103.516 139.83 103.981 140.626C104.445 141.422 104.677 142.307 104.677 143.28C104.677 144.563 104.29 145.713 103.516 146.73C102.764 147.748 101.747 148.621 100.464 149.351C99.1814 150.081 97.7659 150.634 96.2177 151.01C94.6696 151.408 93.1103 151.607 91.54 151.607V151.01C92.5574 151.01 93.5527 150.844 94.5258 150.512C95.5211 150.181 96.4057 149.694 97.1798 149.053C97.9539 148.411 98.5732 147.626 99.0377 146.697C99.5021 145.768 99.7343 144.696 99.7343 143.479C99.7343 142.108 99.4136 141.046 98.7723 140.294C98.1309 139.542 97.1798 139.166 95.9192 139.166C95.2778 139.166 94.7249 139.255 94.2604 139.432C93.8181 139.587 93.3757 139.819 92.9334 140.129L92.4689 139.83L93.5305 129.446C93.7738 129.49 94.0503 129.523 94.3599 129.546C94.6917 129.568 95.0124 129.579 95.322 129.579H100.796C101.437 129.579 101.88 129.479 102.123 129.28C102.388 129.081 102.554 128.749 102.621 128.285H103.317ZM114.183 133.709V145.155C114.183 145.619 114.255 145.934 114.399 146.1C114.553 146.266 114.813 146.349 115.178 146.349V146.697C114.968 146.686 114.659 146.675 114.249 146.664C113.851 146.642 113.442 146.631 113.022 146.631C112.591 146.631 112.154 146.642 111.711 146.664C111.28 146.675 110.954 146.686 110.733 146.697V146.349C111.12 146.349 111.391 146.266 111.546 146.1C111.711 145.934 111.794 145.619 111.794 145.155V135.7C111.794 135.202 111.717 134.837 111.562 134.605C111.418 134.362 111.142 134.24 110.733 134.24V133.892C111.087 133.925 111.429 133.941 111.761 133.941C112.215 133.941 112.646 133.925 113.055 133.892C113.464 133.847 113.84 133.787 114.183 133.709ZM119.591 138.121V138.453C119.248 138.52 118.905 138.663 118.562 138.884C118.219 139.106 117.871 139.388 117.517 139.73L116.24 141.057L116.406 140.742L119.242 145.486C119.364 145.685 119.491 145.862 119.624 146.017C119.756 146.172 119.917 146.283 120.105 146.349V146.697C119.939 146.686 119.69 146.675 119.358 146.664C119.027 146.642 118.695 146.631 118.363 146.631C117.954 146.631 117.545 146.642 117.136 146.664C116.726 146.675 116.422 146.686 116.223 146.697V146.349C116.444 146.349 116.594 146.299 116.671 146.2C116.749 146.089 116.738 145.951 116.638 145.785L114.996 142.816C114.863 142.606 114.73 142.473 114.598 142.418C114.476 142.351 114.31 142.313 114.1 142.302V141.986C114.332 141.964 114.531 141.926 114.697 141.87C114.874 141.815 115.035 141.71 115.178 141.555L116.439 140.328C116.815 139.974 117.003 139.659 117.003 139.382C117.003 139.106 116.881 138.884 116.638 138.719C116.406 138.553 116.096 138.464 115.709 138.453V138.121C116.019 138.132 116.356 138.144 116.721 138.155C117.086 138.166 117.395 138.171 117.65 138.171C117.871 138.171 118.103 138.171 118.347 138.171C118.601 138.16 118.839 138.155 119.06 138.155C119.281 138.144 119.458 138.132 119.591 138.121ZM123.737 149.816C123.051 149.816 122.437 149.755 121.896 149.633C121.365 149.523 120.945 149.346 120.635 149.102C120.336 148.87 120.187 148.583 120.187 148.24C120.187 147.897 120.342 147.587 120.652 147.311C120.961 147.046 121.42 146.835 122.028 146.681L122.178 146.946C121.968 147.112 121.813 147.289 121.713 147.477C121.625 147.676 121.58 147.881 121.58 148.091C121.58 148.555 121.791 148.909 122.211 149.152C122.642 149.407 123.223 149.534 123.953 149.534C124.45 149.534 124.892 149.467 125.28 149.335C125.678 149.202 125.987 149.003 126.208 148.738C126.441 148.472 126.557 148.146 126.557 147.759C126.557 147.427 126.435 147.145 126.192 146.913C125.949 146.692 125.462 146.581 124.732 146.581H123.704C123.25 146.581 122.852 146.531 122.509 146.432C122.178 146.332 121.918 146.178 121.73 145.967C121.542 145.746 121.448 145.47 121.448 145.138C121.448 144.674 121.63 144.264 121.995 143.911C122.36 143.557 122.902 143.225 123.621 142.915L123.787 143.048C123.577 143.181 123.377 143.324 123.189 143.479C123.013 143.623 122.924 143.811 122.924 144.043C122.924 144.397 123.145 144.574 123.588 144.574H125.396C126.004 144.574 126.546 144.646 127.021 144.79C127.508 144.933 127.889 145.171 128.166 145.503C128.453 145.824 128.597 146.244 128.597 146.764C128.597 147.305 128.42 147.809 128.066 148.273C127.723 148.738 127.193 149.108 126.474 149.384C125.755 149.672 124.843 149.816 123.737 149.816ZM123.903 143.164C123.272 143.164 122.708 143.07 122.211 142.882C121.713 142.694 121.321 142.407 121.033 142.02C120.746 141.632 120.602 141.135 120.602 140.527C120.602 139.918 120.746 139.421 121.033 139.034C121.321 138.636 121.713 138.348 122.211 138.171C122.708 137.983 123.272 137.889 123.903 137.889C124.533 137.889 125.097 137.983 125.595 138.171C126.092 138.348 126.485 138.636 126.772 139.034C127.06 139.421 127.204 139.918 127.204 140.527C127.204 141.135 127.06 141.632 126.772 142.02C126.485 142.407 126.092 142.694 125.595 142.882C125.097 143.07 124.533 143.164 123.903 143.164ZM123.903 142.866C124.201 142.866 124.434 142.7 124.599 142.368C124.765 142.025 124.848 141.411 124.848 140.527C124.848 139.642 124.765 139.034 124.599 138.702C124.434 138.359 124.201 138.188 123.903 138.188C123.615 138.188 123.383 138.359 123.206 138.702C123.04 139.034 122.957 139.642 122.957 140.527C122.957 141.411 123.04 142.025 123.206 142.368C123.383 142.7 123.615 142.866 123.903 142.866ZM126.49 139.316L126.159 139.2C126.325 138.768 126.59 138.409 126.955 138.121C127.331 137.834 127.734 137.69 128.166 137.69C128.52 137.69 128.785 137.79 128.962 137.989C129.15 138.177 129.244 138.426 129.244 138.735C129.244 139.067 129.156 139.316 128.979 139.482C128.802 139.636 128.603 139.714 128.381 139.714C128.193 139.714 128.016 139.647 127.851 139.515C127.696 139.382 127.607 139.183 127.585 138.918C127.563 138.641 127.657 138.287 127.867 137.856L127.983 137.956C127.563 138.11 127.248 138.293 127.038 138.503C126.828 138.702 126.645 138.973 126.49 139.316Z" fill="#454545"/>
<defs>
<filter id="filter0_d_588_13992" x="0.650567" y="0.170898" width="213.27" height="96.6823" filterUnits="userSpaceOnUse" color-interpolation-filters="sRGB">
<feFlood flood-opacity="0" result="BackgroundImageFix"/>
<feColorMatrix in="SourceAlpha" type="matrix" values="0 0 0 0 0 0 0 0 0 0 0 0 0 0 0 0 0 0 127 0" result="hardAlpha"/>
<feOffset dy="6.63508"/>
<feGaussianBlur stdDeviation="3.31754"/>
<feComposite in2="hardAlpha" operator="out"/>
<feColorMatrix type="matrix" values="0 0 0 0 0 0 0 0 0 0 0 0 0 0 0 0 0 0 0.25 0"/>
<feBlend mode="normal" in2="BackgroundImageFix" result="effect1_dropShadow_588_13992"/>
<feBlend mode="normal" in="SourceGraphic" in2="effect1_dropShadow_588_13992" result="shape"/>
</filter>
</defs>
</svg>
